<svg xmlns="http://www.w3.org/2000/svg" viewBox="0 0 392.13 228.9">
    <defs>
        <style>
            .flipped {
                transform:scale(-1,1);
                transform-origin:center;
            }
            .stripes {
                fill: #bff9ff;
            }

            .body {
                fill: #f4ff00;
            }

            .eye {
                fill: #fff;
            }
            .d,
            .e,
            .f {
                fill: none;
                stroke: #000;
                stroke-miterlimit: 10;
            }

            .d {
                stroke-width: 1.4px;
            }

            .f {
                stroke-width: 2px;
            }
        </style>
    </defs>
    <g class="fish">
    <path class="stripes"
        d="M517,391c31.25,14.42-32.74,55.59-104.37,71.56l-.13-.56s-23-24.5-23-69.5c0-39,23-70.5,23-70.5l.17-.44C453.12,336.72,468.89,368.79,517,391Z"
        transform="translate(-133.5 -285.3)" />
    <path class="body"
        d="M412.67,321.56l-.17.44s-23,31.5-23,70.5c0,45,23,69.5,23,69.5l.13.56a254.17,254.17,0,0,1-52,6.42h-.35c-4-.08-16.92-.35-24.81-.68l-.61,0-3.4-.23,0-.54s5.3-43.23,5.3-78c0-31.25-11.3-75-11.3-75v-.1c11.13-.93,22.24-1.4,33-1.4C381.24,313,398.48,316.24,412.67,321.56Z"
        transform="translate(-133.5 -285.3)" />
    <path class="body"
        d="M360.63,469l.87,0c0,11.87-47.81,44.5-63,44.5s8-36.13,8-48c0,0,3.1.36,7.19.81h.09q5,.63,10.19,1.09l1,.1c2.63.26,5,.48,6.53.58.91.06,2,.12,3.33.18l.61,0c7.59.47,15.29.7,23,.7.59,0,1.18,0,1.78,0Z"
        transform="translate(-133.5 -285.3)" />
    <path class="eye" d="M360.28,469c-.6,0-1.19,0-1.78,0-7.74,0-15.44-.23-23-.7C343.36,468.63,356.28,468.9,360.28,469Z"
        transform="translate(-133.5 -285.3)" />
    <path class="body"
        d="M369.5,312.5s-30,0-42,1c-20,1.67-28,3-28,3,0-5.73-4.34-5.21,4.46-12.5,5.62-4.65,2.51-18,10-18C333.33,286,369.5,303.11,369.5,312.5Z"
        transform="translate(-133.5 -285.3)" />
    <path class="stripes"
        d="M336.8,389.52c0,34.75-5.3,78-5.3,78l0,.54c-2.16-.16-4.32-.33-6.46-.53l-1-.1c-3.35-.34-7.06-.74-10.19-1.09h-.09c-2.41-.29-4.8-.62-7.17-1,.34-2.81,5-42,5-75.47,0-31.25-12-72.37-12-72.37v-.08c8.57-1.29,17.29-2.3,26-3v.1S336.8,358.27,336.8,389.52Z"
        transform="translate(-133.5 -285.3)" />
    <path class="eye" d="M313.78,466.32c3.13.35,6.84.75,10.19,1.09Q318.83,466.95,313.78,466.32Z"
        transform="translate(-133.5 -285.3)" />
    <path class="body"
        d="M311.47,389.87c0,33.49-4.61,72.66-5,75.47a275.16,275.16,0,0,1-36.35-7.66l.33-1.18s11.33-32.35,11.33-67.1c0-31.25-11.33-65.9-11.33-65.9l-.11-.43c9.32-2.26,19.11-4.15,29.1-5.65v.08S311.47,358.62,311.47,389.87Z"
        transform="translate(-133.5 -285.3)" />
    <path class="stripes"
        d="M270.5,323.5s11.33,34.65,11.33,65.9c0,34.75-11.33,67.1-11.33,67.1l-.33,1.18a183.07,183.07,0,0,1-23.93-8.59l.26-.59s10-24,10-58.75c0-31.25-10-58.75-10-58.75l-.29-.81a242,242,0,0,1,24.18-7.12Z"
        transform="translate(-133.5 -285.3)" />
    <path class="body"
        d="M246.5,331s10,27.5,10,58.75c0,34.75-10,58.75-10,58.75l-.26.59c-9.87-4.39-18.37-9.47-25.07-15.2l.33-.39s6.77-9.57,6.77-44.32c0-31.25-5.77-47.68-5.77-47.68l-.29-.51a146.15,146.15,0,0,1,24-10.8Z"
        transform="translate(-133.5 -285.3)" />
    <path class="stripes"
        d="M222.5,341.5s5.77,16.43,5.77,47.68c0,34.75-6.77,44.32-6.77,44.32l-.33.39c-7.46-6.38-12.7-13.57-15.14-21.51-1.22-4-2.8-5.87-4.65-6.2l.12-.68a186.12,186.12,0,0,0,2-24,96.34,96.34,0,0,0-3-21.94A7.63,7.63,0,0,0,202,358c4.57-6.33,11.51-12,20.21-17Z"
        transform="translate(-133.5 -285.3)" />
    <path class="body"
        d="M203.5,381.5a186.12,186.12,0,0,1-2,24l-.12.68C189.6,404,166.72,465,153,449c-19.07-22.28-19-121.95-19-126,0-12.19,51.3,48.6,66.52,36.56A96.34,96.34,0,0,1,203.5,381.5Z"
        transform="translate(-133.5 -285.3)" />
    <path class="d" d="M325.49,314.4c11.13-.93,22.24-1.4,33-1.4,22.74,0,40,3.24,54.17,8.56"
        transform="translate(-133.5 -285.3)" />
    <path class="e"
        d="M313.69,466.31c-2.41-.29-4.8-.62-7.17-1a275.16,275.16,0,0,1-36.35-7.66,183.07,183.07,0,0,1-23.93-8.59c-9.87-4.39-18.37-9.47-25.07-15.2-7.46-6.38-12.7-13.57-15.14-21.51-1.22-4-2.8-5.87-4.65-6.2C189.6,404,166.72,465,153,449c-19.07-22.28-19-121.95-19-126,0-12.19,51.3,48.6,66.52,36.56A7.63,7.63,0,0,0,202,358c4.57-6.33,11.51-12,20.21-17a146.15,146.15,0,0,1,24-10.8,242,242,0,0,1,24.18-7.12c9.32-2.26,19.11-4.15,29.1-5.65,8.57-1.29,17.29-2.3,26-3"
        transform="translate(-133.5 -285.3)" />
    <path class="e" d="M334.86,468.27l-3.4-.23c-2.16-.16-4.32-.33-6.46-.53" transform="translate(-133.5 -285.3)" />
    <path class="e"
        d="M412.67,321.56C453.12,336.72,468.89,368.79,517,391c31.25,14.42-32.74,55.59-104.37,71.56a254.17,254.17,0,0,1-52,6.42"
        transform="translate(-133.5 -285.3)" />
    <path class="d"
        d="M299.5,316.5c0-5.73-4.34-5.21,4.46-12.5,5.62-4.65,2.51-18,10-18,19.33,0,55.5,17.11,55.5,26.5,0,0-30,0-42,1C307.47,315.17,299.5,316.5,299.5,316.5Z"
        transform="translate(-133.5 -285.3)" />
    <path class="d"
        d="M360.63,469l.87,0c0,11.87-47.81,44.5-63,44.5s8-36.13,8-48c0,0,3.1.36,7.19.81h.09c3.13.35,6.84.75,10.19,1.09l1,.1c2.63.26,5,.48,6.53.58.91.06,2,.12,3.33.18l.61,0c7.89.33,20.81.6,24.81.68Z"
        transform="translate(-133.5 -285.3)" />
    <path class="e" d="M246.5,331s10,27.5,10,58.75c0,34.75-10,58.75-10,58.75" transform="translate(-133.5 -285.3)" />
    <path class="e" d="M270.5,323.5s11.33,34.65,11.33,65.9c0,34.75-11.33,67.1-11.33,67.1"
        transform="translate(-133.5 -285.3)" />
    <path class="e" d="M200.5,359.5l0,.06a96.34,96.34,0,0,1,3,21.94,186.12,186.12,0,0,1-2,24"
        transform="translate(-133.5 -285.3)" />
    <path class="e" d="M222.5,341.5s5.77,16.43,5.77,47.68c0,34.75-6.77,44.32-6.77,44.32"
        transform="translate(-133.5 -285.3)" />
    <path class="e" d="M299.5,317.5s12,41.12,12,72.37c0,33.49-4.61,72.66-5,75.47,0,.11,0,.16,0,.16"
        transform="translate(-133.5 -285.3)" />
    <path class="e" d="M325.5,314.5s11.3,43.77,11.3,75c0,34.75-5.3,78-5.3,78" transform="translate(-133.5 -285.3)" />
    <path class="e" d="M412.5,322s-23,31.5-23,70.5c0,45,23,69.5,23,69.5" transform="translate(-133.5 -285.3)" />
    <path class="f" d="M494.5,431.5H454s-38.37-.82-43.5-14" transform="translate(-133.5 -285.3)" />
    <circle class="eye" cx="307.5" cy="67.7" r="16.5" />
    <path d="M441,337a16,16,0,1,1-16,16,16,16,0,0,1,16-16m0-1a17,17,0,1,0,17,17,17,17,0,0,0-17-17Z"
        transform="translate(-133.5 -285.3)" />
    <circle cx="311.5" cy="64.7" r="4" />
    </g>
</svg>