<svg xmlns="http://www.w3.org/2000/svg" viewBox="0 0 493.05 186.91">
    <defs>
        <style>
            .flipped {
                transform:scale(-1,1);
                transform-origin:center;
            }
            .a {
                fill: #fff;
            }

            .b {
                fill: #d41c00;
            }

            .c {
                fill: #65777c;
            }

            .d,
            .e,
            .f {
                fill: none;
                stroke: #000;
                stroke-miterlimit: 10;
            }

            .e {
                stroke-width: 0.25px;
            }

            .f {
                stroke-width: 1.16px;
            }
        </style>
    </defs>
    <g class="shark flipped">
    <path class="a"
        d="M518.64,649.39c-5.93,0-18.08-9.54-22.58-15.54-1.26-1.68-1.87-3.05-1.67-3.74.36-1.22,2.92-3.34,4.38-4.44.26,2,.92,6,2,6.68a1.21,1.21,0,0,0,.62.14c1.5,0,4.82-1.93,6.22-2.78.12,2.12.57,7.21,2.26,7.68a1.24,1.24,0,0,0,.33,0c1.62,0,3.35-3.44,4.33-5.76.15,3.31.65,9.1,2.31,9.71a1.15,1.15,0,0,0,.37.06c1.57,0,4.06-3.65,5.41-5.83-.26,5.14-.93,12.17-1.92,13.09A2.92,2.92,0,0,1,518.64,649.39Z"
        transform="translate(-77.03 -494.14)" />
    <path
        d="M498.46,626.41c.36,2.5,1,5.64,2.13,6.29a1.63,1.63,0,0,0,.82.2c1.42,0,4.2-1.52,5.85-2.5.2,3,.8,6.9,2.52,7.38a1.61,1.61,0,0,0,.44.06c1.49,0,2.93-2.22,4-4.45.25,3.75.9,7.79,2.49,8.37a1.44,1.44,0,0,0,.51.09c1.46,0,3.42-2.45,4.92-4.71-.33,5.37-1,10.58-1.7,11.27a2.59,2.59,0,0,1-1.81.57c-5.71,0-17.91-9.58-22.26-15.37-1.77-2.37-1.65-3.23-1.6-3.38.25-.88,2.05-2.54,3.68-3.82m.63-1.47s-4.55,3.22-5.09,5.06c-1.16,4,16.89,19.79,24.64,19.79A3.34,3.34,0,0,0,521,649c1.63-1.52,2.11-15,2.11-15s-4,7-5.88,7a.59.59,0,0,1-.23,0c-2-.71-2.11-11.31-2.11-11.31s-2.64,7.34-4.67,7.34a.78.78,0,0,1-.22,0c-1.74-.48-2-8-2-8s-4.84,3.09-6.59,3.09A.8.8,0,0,1,501,632c-1.17-.69-1.91-7.06-1.91-7.06Z"
        transform="translate(-77.03 -494.14)" />
    <path class="a"
        d="M524.06,627.19c.07-2.4,0-6.4-1.32-7.13a1.37,1.37,0,0,0-.66-.15c-1.63,0-4.86,2.51-6.27,3.67-.48-2.07-1.75-6.6-3.69-7.07a2.91,2.91,0,0,0-.6-.06c-2.16,0-5.55,2.39-7.07,3.55-.14-2-.68-6.28-2.79-7a1.54,1.54,0,0,0-.52-.09c-1.94,0-4.7,3.32-5.94,4.95-.65-2.43-1.49-6.74-.33-8.06s3.32-1.89,6.41-1.89c9.6,0,24.11,5.88,27.53,10.1a2.37,2.37,0,0,1,.7,1.86C529.17,621.47,526,625.11,524.06,627.19Z"
        transform="translate(-77.03 -494.14)" />
    <path
        d="M501.28,608.44h0c9.49,0,23.79,5.77,27.14,9.91a2,2,0,0,1,.6,1.44c-.25,1.18-2.43,3.87-4.44,6.1,0-2.84-.35-5.57-1.59-6.26a1.8,1.8,0,0,0-.91-.22h0c-1.58,0-4.26,1.91-6,3.27-1.37-5.45-3.14-6.47-3.89-6.65a2.71,2.71,0,0,0-.71-.08h0c-2,0-4.9,1.84-6.65,3.12-.06-.52-.14-1.11-.25-1.71-.52-2.78-1.44-4.36-2.81-4.81a2.14,2.14,0,0,0-.67-.11c-1.87,0-4.21,2.46-5.71,4.33-.61-2.63-1-5.72-.18-6.61,1-1.12,3.08-1.72,6-1.72m0-1c-3,0-5.49.61-6.78,2.06-1.83,2.06.5,9.5.5,9.5s3.91-5.56,6.14-5.56a1.09,1.09,0,0,1,.36.06c2.36.78,2.5,7.5,2.5,7.5s4.88-4,7.52-4a1.86,1.86,0,0,1,.48,0c2.09.5,3.5,7.5,3.5,7.5s4.7-4.09,6.58-4.09a.9.9,0,0,1,.42.09c1.43.8,1,8,1,8s6-6.09,6.5-8.5c1-4.61-17.72-12.56-28.72-12.56Z"
        transform="translate(-77.03 -494.14)" />
    <path class="b"
        d="M529.5,619.5c-5.25.37-10.33-1.17-15.21-2.89-6.3-1.87-12.69-3.52-18.79-6.11a79.39,79.39,0,0,1,19.8,2.8,86.39,86.39,0,0,1,14.2,6.2Z"
        transform="translate(-77.03 -494.14)" />
    <path class="b"
        d="M493.5,629.5a46.51,46.51,0,0,1,15.63,6.42A53.24,53.24,0,0,1,520.87,648c-5.48-2.94-10.16-7-15.33-10.28a66.63,66.63,0,0,1-12-8.23Z"
        transform="translate(-77.03 -494.14)" />
    <path class="a"
        d="M513.18,654.71a11.13,11.13,0,0,1-6.36-1c-19.43-11.15-108.83,10-129.32,8.75-20.73-1.23-83-3-83-3-46.58,1.53-89.91-36.22-130.12-40.78l.12-1.22s75.46-.66,102.62-2.21c10.39-.6,26-4.49,41.55-6.38s31.16-.78,41.55-1.38,25.41-5.45,40.85-6.34c17.89-1,36.25,1.93,48.2,1.25,8.2-.47,20.85-5.05,34.94-5.64,37.93-1.6,86.29-1.3,86.29-1.3l.15.13c-5.86,6.81-13.23,14.91-21.39,20.3-9.67,6.39-15,2.15-22,.3-6.59-1.74-20.14-9-23.09-4.56-3.3,5-1.35,15.9.61,18.57,4.31,5.84,23,11.71,25.7,18.31C521.79,651.71,516.94,654.31,513.18,654.71Z"
        transform="translate(-77.03 -494.14)" />
    <path class="c"
        d="M560.58,575.83c9.16,1,11.63,6.44,6,12.83-1.75,2-3.75,4.39-6,7l-.15-.13s-48.36-.3-86.29,1.3c-14.09.59-26.74,5.17-34.94,5.64-11.95.68-30.31-2.27-48.2-1.25-15.44.89-30.54,5.75-40.85,6.34s-26-.51-41.55,1.38-31.16,5.78-41.55,6.38C240,616.84,164.5,617.5,164.5,617.5l-.12,1.22a64.22,64.22,0,0,0-14.06-.11c-16.43,1.77-21.15,25.44-36.64,32.56-4.76,2.19-11.53,6.29-14.65,2.42-3.33-4.15,4.38-7.19,7-10.88,9.1-13.08,17.21-27.26,14.66-43.22-2-12.17-8.1-24-16-34.12L80,537.3c-1.22-1.39-3.48-3-2-5.1s4-1,6-.41c20.28,5.86,36.2,18.77,51.62,32.36a192.89,192.89,0,0,1,17.68,17.57c12.67,14.45,27.91,7.33,42.44,5.44l43.47-11.25c24.67-6.37,44.39-12.64,69.32-17.88,11.48-2.41,21.63-9,24.5-19.11,2.81-9.91,3.86-29.41,1.64-40-.95-4.52,1.28-5.14,4.72-3.28,9,4.87,22.91,21.85,27.53,30.55,8.86,16.7,15.27,28,36.16,27.53,37.13-.77,72.78,9.52,108.9,16.36C528,573.09,544.36,574,560.58,575.83Z"
        transform="translate(-77.03 -494.14)" />
    <path class="d"
        d="M560.65,595.63c-5.86,6.81-13.23,14.91-21.39,20.3-9.67,6.39-15,2.15-22,.3-6.59-1.74-20.14-9-23.09-4.56-3.3,5-1.35,15.9.61,18.57,4.31,5.84,23,11.71,25.7,18.31,1.3,3.16-3.55,5.76-7.31,6.16a11.13,11.13,0,0,1-6.36-1c-19.43-11.15-108.83,10-129.32,8.75-20.73-1.23-83-3-83-3-46.58,1.53-89.91-36.22-130.12-40.78a64.22,64.22,0,0,0-14.06-.11c-16.43,1.77-21.15,25.44-36.64,32.56-4.76,2.19-11.53,6.29-14.65,2.42-3.33-4.15,4.38-7.19,7-10.88,9.1-13.08,17.21-27.26,14.66-43.22-2-12.17-8.1-24-16-34.12L80,537.3c-1.22-1.39-3.48-3-2-5.1s4-1,6-.41c20.28,5.86,36.2,18.77,51.62,32.36a192.89,192.89,0,0,1,17.68,17.57c12.67,14.45,27.91,7.33,42.44,5.44l43.47-11.25c24.67-6.37,44.39-12.64,69.32-17.88,11.48-2.41,21.63-9,24.5-19.11,2.81-9.91,3.86-29.41,1.64-40-.95-4.52,1.28-5.14,4.72-3.28,9,4.87,22.91,21.85,27.53,30.55,8.86,16.7,15.27,28,36.16,27.53,37.13-.77,72.78,9.52,108.9,16.36,16,3,32.36,4,48.58,5.77,9.16,1,11.63,6.44,6,12.83C564.87,590.66,562.87,593.05,560.65,595.63Z"
        transform="translate(-77.03 -494.14)" />
    <path class="e"
        d="M164.5,617.5s75.46-.66,102.62-2.21c10.39-.6,26-4.49,41.55-6.38s31.16-.78,41.55-1.38,25.41-5.45,40.85-6.34c17.89-1,36.25,1.93,48.2,1.25,8.2-.47,20.85-5.05,34.94-5.64,37.93-1.6,86.29-1.3,86.29-1.3"
        transform="translate(-77.03 -494.14)" />
    <path class="d" d="M430.5,570s4.62,22.12,4.5,29.5-5.5,29.5-5.5,29.5" transform="translate(-77.03 -494.14)" />
    <path class="d" d="M439.57,570.44s4.62,22.13,4.5,29.5-5.5,29.5-5.5,29.5" transform="translate(-77.03 -494.14)" />
    <path class="d" d="M448.57,570.44s4.62,22.13,4.5,29.5-5.5,29.5-5.5,29.5" transform="translate(-77.03 -494.14)" />
    <path class="c"
        d="M418.07,594.42s-9.78,22.21-22.72,38.73c-10,12.79-55,46.33-55,46.33s13-38.52,17.32-53.57c4.58-16.07,1.38-26.77,1.38-26.77s21.81,2.75,29.1,2.17C395.61,600.71,418.07,594.42,418.07,594.42Z"
        transform="translate(-77.03 -494.14)" />
    <path class="f"
        d="M418.07,594.42s-9.78,22.21-22.72,38.73c-10,12.79-55,46.33-55,46.33s13-38.52,17.32-53.57c4.58-16.07,1.38-26.77,1.38-26.77s21.81,2.75,29.1,2.17C395.61,600.71,418.07,594.42,418.07,594.42Z"
        transform="translate(-77.03 -494.14)" />
    <circle class="a" cx="423.97" cy="81.86" r="11.5" />
    <path d="M501,565a11,11,0,1,1-11,11,11,11,0,0,1,11-11m0-1a12,12,0,1,0,12,12,12,12,0,0,0-12-12Z"
        transform="translate(-77.03 -494.14)" />
    <circle cx="425.47" cy="82.36" r="9.5" />
    </g>
</svg>